{
    "asset" : {
        "generator" : "Khronos glTF Blender I/O v1.6.16",
        "version" : "2.0"
    },
    "scene" : 0,
    "scenes" : [
        {
            "name" : "Scene",
            "nodes" : [
                0,
                1,
                2
            ]
        }
    ],
    "nodes" : [
        {
            "name" : "Light",
            "rotation" : [
                0.16907575726509094,
                0.7558803558349609,
                -0.27217137813568115,
                0.570947527885437
            ],
            "translation" : [
                4.076245307922363,
                5.903861999511719,
                -1.0054539442062378
            ]
        },
        {
            "name" : "Camera",
            "rotation" : [
                0.483536034822464,
                0.33687159419059753,
                -0.20870360732078552,
                0.7804827094078064
            ],
            "translation" : [
                7.358891487121582,
                4.958309173583984,
                6.925790786743164
            ]
        },
        {
            "mesh" : 0,
            "name" : "UEBERBIT_low"
        }
    ],
    "meshes" : [
        {
            "name" : "UEBERBIT_low",
            "primitives" : [
                {
                    "attributes" : {
                        "POSITION" : 0,
                        "NORMAL" : 1
                    },
                    "indices" : 2
                }
            ]
        }
    ],
    "accessors" : [
        {
            "bufferView" : 0,
            "componentType" : 5126,
            "count" : 25677,
            "max" : [
                56.7968635559082,
                10.084745407104492,
                -1.251580834388733
            ],
            "min" : [
                -48.107093811035156,
                -0.028177985921502113,
                -6.251580715179443
            ],
            "type" : "VEC3"
        },
        {
            "bufferView" : 1,
            "componentType" : 5126,
            "count" : 25677,
            "type" : "VEC3"
        },
        {
            "bufferView" : 2,
            "componentType" : 5123,
            "count" : 26400,
            "type" : "SCALAR"
        }
    ],
    "bufferViews" : [
        {
            "buffer" : 0,
            "byteLength" : 308124,
            "byteOffset" : 0
        },
        {
            "buffer" : 0,
            "byteLength" : 308124,
            "byteOffset" : 308124
        },
        {
            "buffer" : 0,
            "byteLength" : 52800,
            "byteOffset" : 616248
        }
    ],
    "buffers" : [
        {
            "byteLength" : 669048,
            "uri" : "data:application/octet-stream;base64,"
        }
    ]
}
